<?xml version="1.0" standalone="no"?>
<!DOCTYPE svg PUBLIC "-//W3C//DTD SVG 20010904//EN"
 "http://www.w3.org/TR/2001/REC-SVG-20010904/DTD/svg10.dtd">
<svg version="1.0" xmlns="http://www.w3.org/2000/svg"
 width="706.000000pt" height="373.000000pt" viewBox="0 0 706.000000 373.000000"
 preserveAspectRatio="xMidYMid meet">

<g transform="translate(0.000000,373.000000) scale(0.100000,-0.100000)"
fill="#000000" stroke="none">
<path d="M611 3210 c-51 -11 -128 -31 -170 -45 l-77 -25 7 -68 c5 -37 8 -76 8
-88 1 -21 2 -21 74 -8 107 19 143 18 169 -8 l21 -21 -6 -581 c-4 -320 -11
-691 -17 -826 -11 -264 -37 -648 -46 -692 -8 -41 29 -46 156 -20 199 41 346
39 559 -9 184 -40 302 -19 362 64 61 85 99 269 99 485 l0 112 -49 0 c-27 0
-62 3 -79 6 -36 7 -34 12 -50 -131 -15 -126 -37 -192 -78 -233 l-35 -35 -202
7 c-111 3 -238 2 -281 -2 l-79 -8 7 135 c24 507 46 1295 46 1632 0 223 -9 280
-52 326 -53 56 -126 65 -287 33z"/>
<path d="M5764 3170 c-41 -9 -100 -46 -108 -66 -9 -24 -7 -63 4 -84 9 -17 2
-15 -52 10 -114 54 -169 53 -188 -5 -14 -42 -6 -85 25 -142 l23 -43 -24 -19
c-34 -27 -163 -68 -249 -80 -38 -6 -147 -15 -241 -21 -536 -34 -900 -181
-1113 -449 -52 -67 -89 -139 -130 -254 -68 -192 -87 -301 -102 -562 -11 -208
-19 -236 -72 -272 -68 -46 -150 -22 -232 69 -151 168 -186 445 -93 738 24 75
118 272 178 374 71 120 76 181 22 267 -38 59 -113 100 -196 106 -117 10 -158
-14 -309 -175 -42 -46 -77 -89 -77 -97 0 -10 10 -15 29 -15 23 0 50 19 126 91
53 50 111 97 130 105 72 30 187 8 219 -41 28 -43 19 -76 -55 -201 -93 -157
-208 -385 -253 -506 -88 -237 -85 -471 8 -663 65 -132 162 -214 309 -260 87
-28 470 -93 716 -122 204 -24 615 -24 721 0 63 14 132 17 433 17 208 0 357 4
357 9 0 5 -14 21 -31 35 l-31 26 87 0 c73 0 86 2 76 14 -6 7 -33 19 -59 26
-60 16 -70 26 -38 34 40 10 31 24 -21 32 -51 8 -438 -2 -538 -13 l-60 -6 83
88 c107 115 146 191 146 285 0 54 -5 75 -27 112 -32 54 -83 102 -143 131 -24
11 -44 24 -44 29 0 19 55 41 115 45 l64 6 -5 -34 c-8 -45 20 -80 91 -115 76
-37 128 -31 204 25 142 104 187 117 261 79 26 -13 51 -35 58 -51 13 -26 11
-34 -12 -79 -14 -27 -26 -52 -26 -54 0 -2 18 5 39 16 78 39 108 121 77 205
-29 74 -97 123 -207 146 l-50 11 65 38 c80 47 192 139 226 185 29 41 23 40
227 19 152 -16 262 -13 293 6 13 8 12 15 -7 49 -13 22 -23 42 -23 45 0 4 91
26 110 26 5 0 10 -21 12 -47 l3 -48 37 52 c21 29 57 64 80 79 93 57 128 106
128 177 0 49 -10 62 -55 73 -76 18 -154 64 -250 149 -169 149 -309 225 -413
225 -26 0 -31 4 -37 33 -35 174 -112 261 -211 237z"/>
<path d="M2308 2380 c-134 -24 -293 -108 -362 -193 -124 -152 -127 -333 -7
-414 43 -29 128 -31 187 -4 54 25 60 55 26 129 -48 105 -39 206 21 242 93 57
205 20 260 -85 16 -32 21 -64 25 -157 2 -64 2 -132 -2 -151 l-6 -34 -71 -7
c-325 -32 -558 -211 -600 -460 -30 -179 31 -346 153 -415 157 -90 325 -20 470
197 l42 62 16 -59 c43 -156 152 -240 297 -228 96 7 165 46 257 145 l28 31 -32
58 c-19 32 -34 59 -36 61 -1 2 -25 -12 -53 -31 -93 -64 -145 -57 -181 26 -29
66 -33 172 -16 459 26 436 19 548 -40 662 -36 70 -69 102 -139 136 -67 32
-159 44 -237 30z m102 -953 c-56 -183 -178 -337 -266 -337 -45 0 -65 32 -71
114 -14 170 82 277 280 310 87 15 88 14 57 -87z"/>
</g>
</svg>
