<?xml version="1.0" standalone="no"?>
<!DOCTYPE svg PUBLIC "-//W3C//DTD SVG 20010904//EN"
 "http://www.w3.org/TR/2001/REC-SVG-20010904/DTD/svg10.dtd">
<svg version="1.0" xmlns="http://www.w3.org/2000/svg"
 width="607.000000pt" height="545.000000pt" viewBox="0 0 607.000000 545.000000"
 preserveAspectRatio="xMidYMid meet">

<g transform="translate(0.000000,545.000000) scale(0.100000,-0.100000)"
fill="#000000" stroke="none">
<path d="M1596 5029 c-95 -16 -162 -61 -501 -344 -181 -151 -347 -293 -367
-315 -60 -67 -71 -89 -293 -585 -7 -16 -56 -126 -109 -243 -53 -118 -96 -220
-96 -228 0 -11 5 -11 28 -1 62 27 72 43 208 348 75 167 146 327 157 354 25 59
57 115 57 99 0 -6 -34 -108 -75 -225 -41 -118 -77 -228 -81 -246 -7 -37 10
-73 36 -73 36 0 286 128 314 160 14 17 26 35 26 38 1 4 7 30 14 57 11 39 15
46 21 30 20 -58 25 -65 51 -65 23 0 176 75 399 195 33 18 92 49 130 70 74 39
121 77 130 106 5 15 -1 67 -35 324 -30 220 -41 292 -52 318 -10 27 -42 47 -72
47 -8 0 -69 -43 -137 -96 -68 -53 -137 -106 -153 -117 -47 -36 -141 -110 -146
-116 -3 -3 -59 -53 -125 -111 -66 -58 -131 -115 -144 -127 -33 -29 -38 -22
-12 16 31 43 692 591 752 624 56 30 99 35 99 13 0 -8 -4 -18 -10 -21 -21 -13
-6 -162 40 -394 15 -81 59 -252 72 -284 11 -28 53 -57 83 -57 12 0 5 -20 -28
-87 -55 -109 -101 -247 -93 -278 9 -34 51 -45 106 -28 25 7 68 20 95 28 82 23
144 41 255 75 58 17 137 40 175 52 39 11 142 44 230 73 88 28 185 59 215 68
137 41 225 65 228 62 2 -1 -6 -56 -17 -121 -28 -164 -44 -375 -36 -462 6 -63
9 -72 23 -67 52 21 215 56 309 66 167 18 653 3 1008 -31 235 -23 706 -84 850
-110 28 -5 93 -16 145 -25 52 -8 167 -27 255 -41 88 -15 185 -30 215 -35 30
-4 102 -15 160 -24 58 -9 116 -17 130 -18 29 -2 29 -22 4 231 -14 136 -15 180
-6 211 30 99 -1 176 -88 221 -63 32 -921 321 -1185 399 -207 61 -451 122 -605
150 -63 12 -135 26 -160 31 -79 16 -281 40 -407 48 l-121 8 -99 66 c-54 36
-120 76 -148 87 -122 53 -909 231 -1240 280 -196 29 -294 35 -379 20z m499
-158 c224 -34 266 -41 440 -76 168 -34 351 -77 555 -130 103 -27 204 -71 195
-85 -3 -4 -64 -11 -137 -15 -479 -24 -817 -100 -1140 -255 -71 -34 -99 -42
-150 -43 l-62 -2 -33 127 c-33 131 -83 399 -83 449 0 63 0 63 149 56 75 -4
195 -16 266 -26z m-600 -143 c5 -22 34 -240 55 -403 6 -44 13 -94 16 -112 7
-38 3 -41 -221 -157 -82 -43 -187 -98 -232 -123 -57 -30 -83 -40 -83 -31 0 8
9 57 20 109 11 52 31 146 45 209 51 239 56 264 64 277 9 16 312 253 323 253 4
0 10 -10 13 -22z m2135 -243 c387 -35 671 -94 1195 -249 116 -34 599 -195 929
-310 151 -52 206 -82 193 -103 -4 -6 -99 18 -219 54 -579 174 -1012 283 -1398
352 -379 68 -507 83 -765 88 -212 5 -237 3 -320 -17 -108 -26 -388 -106 -540
-154 -60 -19 -202 -64 -315 -99 -302 -96 -581 -177 -608 -177 -17 0 40 151 89
233 l41 69 142 68 c306 148 593 213 1056 240 102 6 190 13 195 15 24 8 172 4
325 -10z m-2670 -168 c0 -2 -13 -50 -29 -108 -15 -57 -43 -160 -60 -229 -58
-223 -44 -199 -144 -249 -48 -24 -91 -40 -95 -37 -7 8 118 384 154 461 16 35
44 67 91 107 60 51 83 66 83 55z m2988 -127 c151 -22 276 -40 278 -40 15 0 27
-67 39 -223 8 -100 17 -207 21 -237 4 -41 3 -59 -7 -67 -20 -15 -633 27 -651
45 -10 10 -14 78 -16 274 -2 144 -1 267 2 275 8 19 32 17 334 -27z m-428 15
c15 -18 34 -524 21 -538 -5 -4 -55 -14 -112 -22 -57 -8 -164 -23 -237 -35
-162 -24 -188 -25 -196 -4 -8 20 31 405 47 464 22 81 97 119 275 140 118 13
188 12 202 -5z m-2573 -297 c-3 -8 -6 -5 -6 6 -1 11 2 17 5 13 3 -3 4 -12 1
-19z m4896 -148 c82 -26 97 -34 97 -51 0 -12 5 -98 11 -191 9 -141 9 -173 -2
-184 -12 -11 -29 -9 -108 10 -51 13 -97 29 -101 36 -7 11 -11 61 -26 303 -8
127 -16 122 129 77z"/>
<path d="M1226 3724 c-18 -17 -21 -34 -7 -34 23 0 41 14 41 31 0 23 -13 24
-34 3z"/>
<path d="M1282 3711 c-14 -26 -23 -31 -55 -31 -21 0 -60 -11 -87 -25 -27 -14
-56 -25 -65 -25 -22 0 -19 -28 5 -42 11 -7 20 -18 20 -24 0 -5 29 -21 64 -33
l64 -23 45 20 c31 14 58 37 86 76 23 30 41 58 41 61 0 3 -13 5 -29 5 -26 0
-29 3 -27 33 1 26 -3 33 -22 35 -16 3 -27 -5 -40 -27z"/>
<path d="M1427 3669 c-10 -6 -38 -42 -62 -79 -38 -60 -50 -71 -87 -81 -24 -7
-44 -14 -46 -15 -2 -1 4 -16 12 -33 21 -39 20 -44 -3 -31 -27 14 -29 14 -45
-19 -17 -31 -10 -50 9 -25 10 15 16 15 49 3 46 -17 68 -5 77 41 4 20 24 49 49
74 24 22 40 35 36 29 -9 -16 -6 -16 37 2 20 8 44 15 54 14 10 0 5 -5 -14 -12
-42 -16 -52 -27 -24 -27 39 0 89 -30 105 -63 9 -18 27 -45 40 -61 l24 -29 8
38 c16 88 -35 227 -99 266 -35 21 -91 25 -120 8z"/>
<path d="M1399 3489 c-32 -12 -49 -47 -49 -99 0 -58 32 -90 100 -100 46 -6 49
-8 18 -9 -86 -3 -27 -41 64 -41 69 0 118 -22 118 -54 0 -75 -145 -74 -300 4
-160 80 -290 82 -290 5 0 -49 87 -115 150 -114 18 0 10 6 -27 20 -57 22 -96
61 -91 93 3 19 9 21 64 19 51 -1 81 -10 170 -52 164 -76 290 -86 341 -27 29
34 31 93 4 127 -10 13 -30 48 -45 77 -14 28 -30 52 -35 52 -5 0 -18 15 -29 34
-11 19 -31 41 -44 50 -31 20 -87 27 -119 15z"/>
<path d="M1344 3300 c-5 -5 -25 -10 -44 -12 -22 -2 -36 -9 -38 -19 -4 -22 123
-28 131 -5 7 17 -36 49 -49 36z"/>
<path d="M5135 2618 c-27 -17 -45 -33 -39 -35 19 -6 104 36 104 52 0 21 -8 19
-65 -17z"/>
<path d="M248 2528 c-9 -7 -42 -78 -74 -158 -62 -157 -68 -168 -99 -180 -13
-6 2 -9 45 -8 36 0 58 2 48 5 -27 7 -28 28 -7 93 l21 60 62 0 62 0 21 -62 c22
-67 21 -84 -5 -91 -10 -3 15 -5 53 -5 46 -1 63 2 50 8 -32 13 -40 26 -94 179
-63 177 -62 175 -83 159z m26 -106 l25 -62 -55 0 -54 0 21 53 c12 28 23 58 26
65 7 18 10 14 37 -56z"/>
<path d="M560 2527 l25 -13 0 -154 0 -154 -25 -13 c-22 -11 -11 -13 80 -13 90
0 112 3 150 23 122 61 122 253 0 315 -38 19 -60 22 -150 22 -91 0 -102 -2 -80
-13z m217 -37 c43 -26 63 -68 63 -130 0 -58 -18 -99 -56 -129 -21 -16 -41 -21
-89 -21 l-62 0 -7 53 c-8 67 -8 142 0 201 l7 46 56 0 c38 0 66 -6 88 -20z"/>
<path d="M1050 2527 c25 -13 25 -14 21 -122 -5 -163 -12 -197 -41 -212 -23
-11 -19 -13 40 -12 36 0 58 3 50 6 -8 3 -18 11 -23 17 -8 12 2 220 12 248 4
12 24 -29 57 -120 33 -88 55 -137 65 -137 9 0 34 50 68 138 33 82 58 133 62
125 4 -7 10 -68 14 -135 7 -123 7 -123 -16 -132 -19 -8 -10 -10 41 -10 46 0
59 3 44 9 -26 10 -31 36 -40 200 -7 125 -7 126 17 138 21 10 19 11 -25 9 l-48
-2 -18 -55 c-28 -91 -81 -220 -89 -220 -9 0 -101 246 -101 268 0 8 -18 12 -57
12 -54 0 -56 -1 -33 -13z"/>
<path d="M1600 2533 c35 -12 40 -35 40 -173 0 -138 -5 -161 -40 -173 -8 -3 17
-5 55 -5 39 0 63 2 55 5 -35 12 -40 35 -40 173 0 138 5 161 40 173 8 3 -16 5
-55 5 -38 0 -63 -2 -55 -5z"/>
<path d="M1860 2533 c35 -12 40 -35 40 -172 0 -75 -4 -141 -8 -147 -4 -6 -16
-16 -27 -22 -17 -9 -9 -11 45 -12 61 0 63 1 42 16 -21 14 -22 22 -22 147 l0
131 98 -144 c53 -80 105 -146 115 -148 16 -3 17 10 17 162 0 159 1 165 22 180
21 15 19 16 -42 16 -59 0 -63 -1 -40 -13 24 -12 25 -15 28 -141 2 -83 -1 -125
-7 -121 -15 8 -136 192 -157 238 -17 36 -19 37 -68 36 -28 0 -44 -3 -36 -6z"/>
<path d="M2353 2533 c29 -7 37 -46 37 -173 0 -127 -8 -166 -37 -173 -10 -3 14
-5 52 -6 63 -1 67 1 45 12 l-25 13 0 154 0 154 25 13 c22 11 18 13 -45 12 -38
-1 -62 -3 -52 -6z"/>
<path d="M2664 2530 c-29 -12 -54 -49 -54 -81 0 -41 35 -76 94 -95 75 -24 99
-44 99 -84 0 -81 -136 -98 -174 -21 l-13 26 -4 -34 c-4 -39 6 -48 65 -57 98
-15 163 23 163 95 0 53 -29 83 -105 111 -75 27 -85 35 -85 71 0 58 89 81 136
34 20 -20 26 -22 30 -10 4 8 4 21 1 29 -9 23 -109 34 -153 16z"/>
<path d="M2968 2508 c-5 -32 -5 -32 10 -10 12 18 24 22 62 22 34 0 50 -4 54
-16 8 -21 6 -253 -3 -284 -4 -14 -17 -27 -31 -31 -15 -4 4 -7 50 -8 67 -1 72
1 50 12 -25 13 -25 13 -28 170 l-3 157 50 0 c40 0 53 -4 65 -22 16 -22 16 -22
16 10 l0 32 -144 0 -144 0 -4 -32z"/>
<path d="M3393 2533 c29 -7 37 -46 37 -173 0 -127 -8 -166 -37 -173 -10 -3 14
-5 52 -6 63 -1 67 1 45 12 -23 11 -25 19 -28 85 -3 69 -2 72 20 72 17 0 33
-16 62 -60 52 -81 88 -110 134 -109 37 1 37 1 11 12 -38 17 -55 34 -106 99
l-44 58 24 9 c32 13 67 58 67 88 0 66 -51 94 -172 92 -46 -1 -75 -3 -65 -6z
m182 -38 c53 -52 13 -125 -70 -125 l-45 0 0 75 0 75 45 0 c35 0 52 -6 70 -25z"/>
<path d="M3958 2528 c-9 -7 -42 -78 -74 -158 -62 -157 -68 -168 -99 -180 -13
-6 2 -9 45 -8 36 0 58 2 48 5 -27 7 -28 28 -7 93 l21 60 62 0 62 0 21 -62 c22
-67 21 -84 -5 -91 -10 -3 15 -5 53 -5 46 -1 63 2 50 8 -32 13 -40 26 -94 179
-63 177 -62 175 -83 159z m26 -106 l25 -62 -55 0 -54 0 21 53 c12 28 23 58 26
65 7 18 10 14 37 -56z"/>
<path d="M4379 2531 c-47 -15 -78 -42 -99 -85 -26 -54 -26 -118 1 -172 25 -52
71 -83 136 -90 52 -6 124 14 131 36 4 10 0 11 -14 5 -11 -5 -46 -10 -79 -12
-46 -3 -67 1 -91 15 -81 51 -86 200 -9 260 38 30 121 31 158 2 l26 -20 6 21
c4 11 2 26 -3 31 -13 13 -130 20 -163 9z"/>
<path d="M4700 2533 c27 -11 30 -26 30 -181 0 -149 -1 -153 -22 -162 -17 -6
-7 -9 42 -9 49 0 59 3 43 9 -23 9 -23 13 -23 170 0 157 0 161 23 170 16 6 6 9
-43 9 -36 -1 -58 -3 -50 -6z"/>
<path d="M5050 2518 c-65 -34 -84 -66 -88 -151 -3 -62 -1 -77 20 -106 33 -49
69 -72 122 -78 63 -8 129 19 164 65 24 31 27 44 27 111 0 64 -4 81 -24 110
-28 39 -91 70 -141 71 -20 0 -56 -10 -80 -22z m170 -43 c94 -90 36 -265 -86
-265 -85 0 -138 55 -139 145 -1 105 50 159 143 152 41 -3 59 -10 82 -32z"/>
<path d="M5450 2533 c35 -12 40 -35 40 -172 0 -75 -4 -141 -8 -147 -4 -6 -16
-16 -27 -22 -17 -9 -9 -11 45 -12 61 0 63 1 42 16 -21 14 -22 22 -22 147 l0
131 98 -144 c53 -80 105 -146 115 -148 16 -3 17 10 17 162 0 159 1 165 22 180
21 15 19 16 -42 16 -59 0 -63 -1 -40 -13 24 -12 25 -15 28 -141 2 -83 -1 -125
-7 -121 -15 8 -136 192 -157 238 -17 36 -19 37 -68 36 -28 0 -44 -3 -36 -6z"/>
<path d="M1460 1558 c0 -13 -3 -32 -6 -44 -5 -17 3 -24 45 -42 35 -14 51 -27
51 -39 0 -43 -62 -560 -70 -580 -5 -12 -25 -26 -47 -33 -52 -17 -56 -22 -48
-69 l7 -41 139 0 139 0 0 29 c0 16 3 36 6 44 4 12 -8 20 -45 34 -31 11 -51 24
-51 33 0 8 11 103 25 210 14 107 25 199 25 204 0 25 20 -25 115 -286 l104
-283 31 3 c18 1 40 6 49 12 11 5 55 113 121 295 57 157 106 288 110 290 5 3
51 -411 50 -451 0 -5 -23 -18 -51 -28 -36 -13 -49 -23 -45 -33 3 -8 6 -28 6
-44 l0 -29 178 2 177 3 0 44 c0 42 -2 45 -40 58 -22 7 -43 17 -46 21 -6 5 -47
404 -62 585 -2 26 3 31 50 49 50 18 52 20 47 51 -11 60 -4 58 -140 55 l-127
-3 -121 -330 -121 -330 -3 65 c-2 54 -20 113 -100 330 l-98 265 -127 3 c-126
3 -127 2 -127 -20z"/>
<path d="M3474 1545 c-9 -48 -2 -59 45 -75 23 -7 44 -16 46 -19 3 -6 -62 -588
-69 -606 -2 -6 -26 -18 -54 -28 -49 -18 -51 -20 -46 -50 3 -18 7 -38 10 -44 2
-10 39 -13 138 -13 l134 0 7 41 c8 47 7 49 -48 69 -31 12 -42 21 -40 36 6 79
47 400 52 406 3 4 53 -122 110 -280 57 -158 105 -288 106 -290 2 -2 23 2 48 8
l45 12 102 281 c93 257 118 321 120 307 33 -311 47 -456 43 -462 -2 -4 -22
-13 -44 -20 -47 -14 -54 -25 -45 -73 l7 -35 174 0 c142 0 175 3 175 14 0 7 3
27 6 44 6 29 4 31 -45 49 -44 15 -52 22 -56 48 -11 74 -56 576 -51 583 3 5 23
15 46 22 51 17 53 21 45 70 l-7 40 -127 0 -127 0 -120 -326 c-116 -318 -119
-325 -122 -273 -2 37 -34 136 -104 326 l-101 273 -123 0 -123 0 -7 -35z"/>
<path d="M2810 1511 c-162 -53 -214 -216 -103 -327 l30 -30 -32 -21 c-95 -63
-133 -199 -84 -300 38 -79 117 -119 249 -130 188 -14 320 96 320 269 0 26 4
38 14 38 26 0 83 64 96 107 16 51 10 69 -26 76 -21 4 -34 -1 -50 -18 -27 -30
-65 -48 -139 -70 -83 -23 -120 -49 -144 -99 -29 -58 -27 -84 5 -92 20 -5 32 0
55 24 27 28 75 49 86 38 12 -12 -12 -72 -44 -107 -57 -64 -144 -74 -221 -27
-42 26 -62 65 -62 122 0 77 67 136 155 136 l45 0 0 45 c0 43 -1 45 -29 45 -40
0 -93 38 -115 83 -24 51 -13 93 34 125 30 20 43 23 88 19 65 -7 76 -15 92 -72
7 -25 16 -47 20 -50 4 -2 23 -2 43 2 l37 6 0 73 0 73 -67 32 c-56 27 -82 33
-148 36 -44 1 -91 -1 -105 -6z"/>
</g>
</svg>
